<svg width="770" height="445" xmlns="http://www.w3.org/2000/svg" viewBox="0 0 770 445">
 <style type="text/css">.st0{fill:#ED5EA1;}
	.st1{fill:#FFFFFF;}
	.st2{fill:#97155E;}</style>

 <g>
  <title>background</title>
  <rect fill="none" id="canvas_background" height="447" width="772" y="-1" x="-1"/>
 </g>
 <g>
  <title>Layer 1</title>
  <g id="svg_1">
   <path id="svg_2" d="m545.699994,443.6c121.5,0 219.9,-98.9 219.9,-221c0,-122 -98.5,-220.9 -219.9,-220.9c-121.5,0 -219.9,98.9 -219.9,220.9c-0.1,122.1 98.4,221 219.9,221" class="st0"/>
   <g id="svg_3">
    <path id="svg_4" d="m472.199994,190c-1,0 -1.6,-0.5 -2,-1.4l-11,-28.2c-0.2,-0.4 -0.2,-0.8 -0.2,-1.1c0,-0.3 0.1,-0.6 0.2,-0.9c0.1,-0.3 0.3,-0.5 0.5,-0.7c0.2,-0.2 0.4,-0.4 0.7,-0.5c0.3,-0.1 0.5,-0.2 0.9,-0.2c1,0 1.6,0.4 2,1.3l9.1,23.4l9.1,-23.4c0.3,-0.9 1,-1.3 2,-1.3c0.3,0 0.6,0.1 0.9,0.2c0.3,0.1 0.5,0.3 0.7,0.5c0.2,0.2 0.4,0.4 0.5,0.7c0.1,0.3 0.2,0.6 0.2,0.9c0,0.4 -0.1,0.7 -0.2,1.1l-11,28.2c-0.8,0.9 -1.5,1.4 -2.4,1.4z" class="st1"/>
    <path id="svg_5" d="m519.599994,173.6c0,4.5 -1.6,8.4 -4.8,11.6c-3.2,3.2 -7.1,4.8 -11.6,4.8c-4.5,0 -8.4,-1.6 -11.6,-4.8c-3.2,-3.2 -4.8,-7.1 -4.8,-11.6c0,-4.5 1.6,-8.4 4.8,-11.6c3.2,-3.2 7.1,-4.8 11.6,-4.8c4.5,0 8.4,1.6 11.6,4.8c1.6,1.6 2.8,3.4 3.6,5.3c0.8,1.9 1.2,4 1.2,6.3zm-16.5,-12.1c-1.7,0 -3.2,0.3 -4.7,0.9c-1.4,0.6 -2.7,1.5 -3.9,2.7c-1.2,1.2 -2.1,2.5 -2.7,3.9c-0.6,1.4 -0.9,2.9 -0.9,4.6c0,3.3 1.2,6.2 3.5,8.5c2.4,2.4 5.2,3.5 8.5,3.5c3.3,0 6.2,-1.2 8.5,-3.5c2.4,-2.4 3.5,-5.2 3.5,-8.5c0,-3.3 -1.2,-6.2 -3.5,-8.5c-2.1,-2.4 -4.9,-3.6 -8.3,-3.6z" class="st1"/>
    <path id="svg_6" d="m526.699994,159.3l0,19c0,1 0.2,1.9 0.6,2.8c0.4,0.9 0.9,1.7 1.6,2.3c0.7,0.7 1.4,1.2 2.3,1.6c0.9,0.4 1.8,0.6 2.9,0.6c1,0 2,-0.2 2.9,-0.6c0.9,-0.4 1.7,-0.9 2.3,-1.6c0.7,-0.7 1.2,-1.4 1.6,-2.3c0.4,-0.9 0.6,-1.8 0.6,-2.8l0,-19c0,-0.6 0.2,-1.1 0.6,-1.5c0.4,-0.4 0.9,-0.6 1.5,-0.6c0.6,0 1.1,0.2 1.5,0.6c0.4,0.4 0.6,0.9 0.6,1.5l0,19c0,1.1 -0.1,2.1 -0.4,3.1c-0.3,1 -0.7,1.9 -1.2,2.8c-0.5,0.9 -1.1,1.7 -1.8,2.4c-0.7,0.7 -1.5,1.3 -2.4,1.8c-0.9,0.5 -1.8,0.9 -2.8,1.2c-1,0.3 -2,0.4 -3.1,0.4c-3.2,0 -6,-1.1 -8.2,-3.4c-2.3,-2.3 -3.4,-5 -3.4,-8.3l0,-19c0,-0.6 0.2,-1.1 0.6,-1.5c0.4,-0.4 0.9,-0.6 1.5,-0.6c0.6,0 1.1,0.2 1.5,0.6c0.5,0.4 0.7,0.9 0.7,1.5z" class="st1"/>
    <path id="svg_7" d="m552.499994,171.7c-1,-0.9 -1.7,-1.9 -2.1,-2.9c-0.4,-1 -0.6,-2 -0.6,-3.1c0,-1.3 0.3,-2.6 0.8,-3.6c0.5,-1.1 1.3,-2.1 2.2,-2.9l0,0c1.6,-1.4 3.4,-2.1 5.5,-2.1c0.7,0 1.4,0.1 2.1,0.3c0.7,0.2 1.3,0.4 2,0.8c0.6,0.3 1.2,0.8 1.8,1.3c0.6,0.5 1,1.1 1.5,1.8c0.2,0.4 0.3,0.7 0.3,1.2c0,0.3 -0.1,0.6 -0.2,0.9c-0.1,0.3 -0.3,0.5 -0.5,0.7c-0.2,0.2 -0.4,0.4 -0.7,0.5c-0.3,0.1 -0.6,0.2 -0.9,0.2c-0.3,0 -0.5,0 -0.7,-0.1c-0.2,-0.1 -0.4,-0.2 -0.6,-0.3c-0.2,-0.2 -0.3,-0.3 -0.5,-0.5c-0.2,-0.2 -0.3,-0.4 -0.5,-0.7c-0.3,-0.5 -0.8,-0.8 -1.3,-1.1c-0.6,-0.2 -1.2,-0.4 -1.8,-0.4c-0.5,0 -1,0.1 -1.5,0.3c-0.5,0.2 -0.9,0.5 -1.3,0.9c-0.4,0.4 -0.7,0.8 -0.9,1.3c-0.2,0.5 -0.4,1.1 -0.4,1.6c0,1.1 0.3,1.9 0.9,2.5c0.6,0.6 1.6,1.1 3,1.5c2.4,0.7 4.3,1.6 5.7,2.8c1.4,1.2 2.3,2.4 2.8,3.6c0.5,1.2 0.7,2.4 0.7,3.7c0,3.2 -1.2,5.8 -3.6,7.8l0,0c-1.9,1.6 -4.1,2.4 -6.5,2.4c-0.8,0 -1.6,-0.1 -2.4,-0.3c-0.8,-0.2 -1.6,-0.5 -2.3,-0.9s-1.4,-0.9 -2.1,-1.4c-0.7,-0.6 -1.2,-1.2 -1.7,-2c-0.3,-0.4 -0.4,-0.8 -0.4,-1.3c0,-0.3 0.1,-0.6 0.2,-0.9c0.1,-0.3 0.3,-0.5 0.5,-0.7c0.2,-0.2 0.4,-0.4 0.7,-0.5c0.3,-0.1 0.5,-0.2 0.9,-0.2c0.8,0 1.4,0.3 1.8,1c0.6,0.9 1.3,1.6 2.2,2c0.9,0.5 1.8,0.7 2.8,0.7c0.8,0 1.5,-0.2 2.2,-0.5c0.7,-0.3 1.3,-0.7 1.8,-1.2c0.5,-0.5 0.9,-1.1 1.2,-1.8c0.3,-0.7 0.5,-1.5 0.5,-2.2c0,-0.8 -0.1,-1.5 -0.4,-2.1c-0.3,-0.7 -0.8,-1.3 -1.6,-2c-0.8,-0.6 -2.1,-1.2 -3.8,-1.8c-2.3,-0.6 -3.8,-1.4 -4.8,-2.3z" class="st1"/>
    <path id="svg_8" d="m581.799994,186.8l11,-28.2c0.4,-1 1.1,-1.5 2.1,-1.5c1,0 1.7,0.5 2.1,1.5l11,28.3c0.1,0.3 0.2,0.6 0.2,0.9c0,0.6 -0.2,1.1 -0.6,1.5c-0.4,0.4 -0.9,0.6 -1.5,0.6c-0.6,0 -1.1,-0.2 -1.5,-0.6c-0.2,-0.2 -0.4,-0.5 -0.5,-0.7l-3.8,-9.8l-10.5,0l-3.8,9.8c-0.1,0.2 -0.3,0.5 -0.5,0.7c-0.4,0.4 -0.9,0.6 -1.5,0.6c-0.6,0 -1.1,-0.2 -1.5,-0.6c-0.4,-0.4 -0.6,-0.9 -0.6,-1.5c-0.3,-0.3 -0.2,-0.6 -0.1,-1zm16.7,-12.3l-3.6,-9.2l-3.6,9.2l7.2,0z" class="st1"/>
    <path id="svg_9" d="m615.399994,190c-1,0 -1.6,-0.5 -2,-1.4l-11,-28.2c-0.2,-0.4 -0.2,-0.8 -0.2,-1.1c0,-0.3 0.1,-0.6 0.2,-0.9c0.1,-0.3 0.3,-0.5 0.5,-0.7c0.2,-0.2 0.4,-0.4 0.7,-0.5c0.3,-0.1 0.5,-0.2 0.9,-0.2c1,0 1.6,0.4 2,1.3l9.1,23.4l9.1,-23.4c0.3,-0.9 1,-1.3 2,-1.3c0.3,0 0.6,0.1 0.9,0.2c0.3,0.1 0.5,0.3 0.7,0.5c0.2,0.2 0.4,0.4 0.5,0.7c0.1,0.3 0.2,0.6 0.2,0.9c0,0.4 -0.1,0.7 -0.2,1.1l-11,28.2c-0.8,0.9 -1.4,1.4 -2.4,1.4z" class="st1"/>
    <path id="svg_10" d="m652.399994,185.6c0.6,0 1.1,0.2 1.5,0.6c0.4,0.4 0.6,0.9 0.6,1.5c0,0.6 -0.2,1.1 -0.6,1.5c-0.4,0.4 -0.9,0.6 -1.5,0.6l-19,0c-0.3,0 -0.6,-0.1 -0.9,-0.2c-0.3,-0.1 -0.5,-0.3 -0.7,-0.5c-0.2,-0.2 -0.4,-0.4 -0.5,-0.7c-0.1,-0.3 -0.2,-0.5 -0.2,-0.9l0,-28.5c0,-0.3 0.1,-0.6 0.2,-0.9c0.1,-0.3 0.3,-0.5 0.5,-0.7c0.2,-0.2 0.4,-0.4 0.7,-0.5c0.3,-0.1 0.5,-0.2 0.9,-0.2l19,0c0.6,0 1.1,0.2 1.5,0.6c0.4,0.4 0.6,0.9 0.6,1.5c0,0.6 -0.2,1.1 -0.6,1.5c-0.4,0.4 -0.9,0.6 -1.5,0.6l-16.8,0l0,9.9l12.1,0c0.6,0 1.1,0.2 1.5,0.6c0.4,0.4 0.6,0.9 0.6,1.5c0,0.6 -0.2,1.1 -0.6,1.5c-0.4,0.4 -0.9,0.6 -1.5,0.6l-12.1,0l0,9.9l16.8,0l0,0.7z" class="st1"/>
    <path id="svg_11" d="m659.399994,157.1l22.2,0c0.3,0 0.6,0.1 0.9,0.2c0.3,0.1 0.5,0.3 0.7,0.5c0.2,0.2 0.4,0.4 0.5,0.7c0.1,0.3 0.2,0.6 0.2,0.9c0,0.5 -0.1,0.9 -0.4,1.3l-19.5,25.1l17.7,0c0.6,0 1.1,0.2 1.6,0.7c0.4,0.4 0.6,0.9 0.6,1.5c0,0.6 -0.2,1.1 -0.6,1.5c-0.4,0.4 -0.9,0.6 -1.5,0.6l-22.2,0c-0.3,0 -0.6,-0.1 -0.9,-0.2c-0.3,-0.1 -0.5,-0.3 -0.7,-0.5c-0.2,-0.2 -0.4,-0.4 -0.5,-0.7c-0.1,-0.3 -0.2,-0.5 -0.2,-0.9c0,-0.5 0.2,-1 0.5,-1.4l19.4,-25l-17.7,0c-0.6,0 -1.1,-0.2 -1.5,-0.6c-0.4,-0.4 -0.6,-0.9 -0.6,-1.5c0,-0.6 0.2,-1.1 0.6,-1.5c0.3,-0.5 0.8,-0.7 1.4,-0.7z" class="st1"/>
    <path id="svg_12" d="m481.699994,212l-8.1,0l0,26.3c0,0.6 -0.2,1.1 -0.6,1.5c-0.4,0.4 -0.9,0.6 -1.5,0.6c-0.6,0 -1.1,-0.2 -1.5,-0.6c-0.4,-0.4 -0.6,-0.9 -0.6,-1.5l0,-26.3l-8.1,0c-0.6,0 -1.1,-0.2 -1.5,-0.6c-0.4,-0.4 -0.6,-0.9 -0.6,-1.5c0,-0.6 0.2,-1.1 0.6,-1.5c0.4,-0.4 0.9,-0.6 1.5,-0.6l20.6,0c0.6,0 1.1,0.2 1.5,0.6c0.4,0.4 0.6,0.9 0.6,1.5c0,0.6 -0.2,1.1 -0.6,1.5c-0.6,0.3 -1.1,0.6 -1.7,0.6z" class="st1"/>
    <path id="svg_13" d="m515.099994,224c0,4.5 -1.6,8.4 -4.8,11.6c-3.2,3.2 -7.1,4.8 -11.6,4.8c-4.5,0 -8.4,-1.6 -11.6,-4.8c-3.2,-3.2 -4.8,-7.1 -4.8,-11.6c0,-4.5 1.6,-8.4 4.8,-11.6c3.2,-3.2 7.1,-4.8 11.6,-4.8c4.5,0 8.4,1.6 11.6,4.8c1.6,1.6 2.8,3.4 3.6,5.3c0.8,1.9 1.2,4 1.2,6.3zm-16.5,-12c-1.7,0 -3.2,0.3 -4.7,0.9c-1.4,0.6 -2.7,1.5 -3.9,2.7c-1.2,1.2 -2.1,2.5 -2.7,3.9c-0.6,1.4 -0.9,2.9 -0.9,4.6c0,3.3 1.2,6.2 3.5,8.5c2.4,2.4 5.2,3.5 8.5,3.5c3.3,0 6.2,-1.2 8.5,-3.5c2.4,-2.4 3.5,-5.2 3.5,-8.5c0,-3.3 -1.2,-6.2 -3.5,-8.5c-2.1,-2.5 -4.9,-3.6 -8.3,-3.6z" class="st1"/>
    <path id="svg_14" d="m522.199994,209.8l0,19c0,1 0.2,1.9 0.6,2.8c0.4,0.9 0.9,1.7 1.6,2.3c0.7,0.7 1.4,1.2 2.3,1.6c0.9,0.4 1.8,0.6 2.9,0.6c1,0 2,-0.2 2.9,-0.6c0.9,-0.4 1.7,-0.9 2.3,-1.6c0.7,-0.7 1.2,-1.4 1.6,-2.3c0.4,-0.9 0.6,-1.8 0.6,-2.8l0,-19c0,-0.6 0.2,-1.1 0.6,-1.5c0.4,-0.4 0.9,-0.6 1.5,-0.6c0.6,0 1.1,0.2 1.5,0.6c0.4,0.4 0.6,0.9 0.6,1.5l0,19c0,1.1 -0.1,2.1 -0.4,3.1c-0.3,1 -0.7,1.9 -1.2,2.8c-0.5,0.9 -1.1,1.7 -1.8,2.4c-0.7,0.7 -1.5,1.3 -2.4,1.8c-0.9,0.5 -1.8,0.9 -2.8,1.2c-1,0.3 -2,0.4 -3.1,0.4c-3.2,0 -6,-1.1 -8.2,-3.4c-2.3,-2.3 -3.4,-5 -3.4,-8.3l0,-19c0,-0.6 0.2,-1.1 0.6,-1.5c0.4,-0.4 0.9,-0.6 1.5,-0.6c0.6,0 1.1,0.2 1.5,0.6c0.5,0.4 0.7,0.9 0.7,1.5z" class="st1"/>
    <path id="svg_15" d="m566.499994,212l-8.1,0l0,26.3c0,0.6 -0.2,1.1 -0.6,1.5c-0.4,0.4 -0.9,0.6 -1.5,0.6c-0.6,0 -1.1,-0.2 -1.5,-0.6c-0.4,-0.4 -0.6,-0.9 -0.6,-1.5l0,-26.3l-8.1,0c-0.6,0 -1.1,-0.2 -1.5,-0.6c-0.4,-0.4 -0.6,-0.9 -0.6,-1.5c0,-0.6 0.2,-1.1 0.6,-1.5c0.4,-0.4 0.9,-0.6 1.5,-0.6l20.6,0c0.6,0 1.1,0.2 1.5,0.6c0.4,0.4 0.6,0.9 0.6,1.5c0,0.6 -0.2,1.1 -0.6,1.5c-0.6,0.3 -1.1,0.6 -1.7,0.6z" class="st1"/>
    <path id="svg_16" d="m592.399994,236.1c0.6,0 1.1,0.2 1.5,0.6c0.4,0.4 0.6,0.9 0.6,1.5c0,0.6 -0.2,1.1 -0.6,1.5c-0.4,0.4 -0.9,0.6 -1.5,0.6l-19,0c-0.3,0 -0.6,-0.1 -0.9,-0.2c-0.3,-0.1 -0.5,-0.3 -0.7,-0.5c-0.2,-0.2 -0.4,-0.4 -0.5,-0.7c-0.1,-0.3 -0.2,-0.5 -0.2,-0.9l0,-28.5c0,-0.3 0.1,-0.6 0.2,-0.9c0.1,-0.3 0.3,-0.5 0.5,-0.7c0.2,-0.2 0.4,-0.4 0.7,-0.5c0.3,-0.1 0.5,-0.2 0.9,-0.2l19,0c0.6,0 1.1,0.2 1.5,0.6c0.4,0.4 0.6,0.9 0.6,1.5c0,0.6 -0.2,1.1 -0.6,1.5c-0.4,0.4 -0.9,0.6 -1.5,0.6l-16.8,0l0,9.9l12.1,0c0.6,0 1.1,0.2 1.5,0.6c0.4,0.4 0.6,0.9 0.6,1.5c0,0.6 -0.2,1.1 -0.6,1.5c-0.4,0.4 -0.9,0.6 -1.5,0.6l-12.1,0l0,9.9l16.8,0l0,0.7z" class="st1"/>
    <path id="svg_17" d="m609.099994,238.3l0,-28.5c0,-0.3 0.1,-0.6 0.2,-0.9c0.1,-0.3 0.3,-0.5 0.5,-0.7c0.2,-0.2 0.4,-0.4 0.7,-0.5c0.3,-0.1 0.5,-0.2 0.9,-0.2c0.6,0 1.2,0.3 1.7,0.8l18.3,23.6l0,-22.2c0,-0.6 0.2,-1.1 0.6,-1.5c0.4,-0.4 0.9,-0.6 1.5,-0.6c0.6,0 1.1,0.2 1.5,0.6c0.4,0.4 0.6,0.9 0.6,1.5l0,28.5c0,0.3 -0.1,0.6 -0.2,0.9c-0.1,0.3 -0.3,0.5 -0.5,0.7c-0.2,0.2 -0.4,0.4 -0.7,0.5c-0.3,0.1 -0.6,0.2 -0.9,0.2c-0.6,0 -1.2,-0.3 -1.7,-0.8l-18.3,-23.6l0,22.1c0,0.6 -0.2,1.1 -0.6,1.5c-0.4,0.4 -0.9,0.6 -1.5,0.6c-0.6,0 -1.1,-0.2 -1.5,-0.6c-0.3,-0.3 -0.6,-0.8 -0.6,-1.4z" class="st1"/>
    <path id="svg_18" d="m671.199994,224c0,4.5 -1.6,8.4 -4.8,11.6c-3.2,3.2 -7.1,4.8 -11.6,4.8c-4.5,0 -8.4,-1.6 -11.6,-4.8c-3.2,-3.2 -4.8,-7.1 -4.8,-11.6c0,-4.5 1.6,-8.4 4.8,-11.6c3.2,-3.2 7.1,-4.8 11.6,-4.8c4.5,0 8.4,1.6 11.6,4.8c1.6,1.6 2.8,3.4 3.6,5.3c0.8,1.9 1.2,4 1.2,6.3zm-16.4,-12c-1.7,0 -3.2,0.3 -4.7,0.9c-1.4,0.6 -2.7,1.5 -3.9,2.7c-1.2,1.2 -2.1,2.5 -2.7,3.9c-0.6,1.4 -0.9,2.9 -0.9,4.6c0,3.3 1.2,6.2 3.5,8.5c2.4,2.4 5.2,3.5 8.5,3.5c3.3,0 6.2,-1.2 8.5,-3.5c2.4,-2.4 3.5,-5.2 3.5,-8.5c0,-3.3 -1.2,-6.2 -3.5,-8.5c-2.1,-2.5 -5,-3.6 -8.3,-3.6z" class="st1"/>
    <path id="svg_19" d="m692.699994,212l-8.1,0l0,26.3c0,0.6 -0.2,1.1 -0.6,1.5c-0.4,0.4 -0.9,0.6 -1.5,0.6c-0.6,0 -1.1,-0.2 -1.5,-0.6c-0.4,-0.4 -0.6,-0.9 -0.6,-1.5l0,-26.3l-8.1,0c-0.6,0 -1.1,-0.2 -1.5,-0.6c-0.4,-0.4 -0.6,-0.9 -0.6,-1.5c0,-0.6 0.2,-1.1 0.6,-1.5c0.4,-0.4 0.9,-0.6 1.5,-0.6l20.6,0c0.6,0 1.1,0.2 1.5,0.6c0.4,0.4 0.6,0.9 0.6,1.5c0,0.6 -0.2,1.1 -0.6,1.5c-0.6,0.3 -1.1,0.6 -1.7,0.6z" class="st1"/>
    <path id="svg_20" d="m697.399994,238.3l0,-28.5c0,-0.3 0.1,-0.6 0.2,-0.9c0.1,-0.3 0.3,-0.5 0.5,-0.7c0.2,-0.2 0.4,-0.4 0.7,-0.5c0.3,-0.1 0.5,-0.2 0.9,-0.2l7.9,0c1.4,0 2.7,0.3 3.9,0.8c1.2,0.5 2.3,1.3 3.2,2.2c0.9,0.9 1.6,2 2.2,3.2c0.5,1.2 0.8,2.5 0.8,3.9c0,0.9 -0.1,1.8 -0.3,2.6c-0.2,0.9 -0.6,1.7 -1,2.4c-0.4,0.8 -1,1.5 -1.7,2.1c-0.7,0.7 -1.4,1.2 -2.3,1.7l6.6,10.5c0.2,0.4 0.3,0.8 0.3,1.2c0,0.3 -0.1,0.6 -0.2,0.9c-0.1,0.3 -0.3,0.5 -0.5,0.7c-0.2,0.2 -0.4,0.4 -0.7,0.5c-0.3,0.1 -0.6,0.2 -0.9,0.2c-0.8,0 -1.4,-0.4 -1.9,-1.1l-7.2,-11.6l-6.1,0l0,10.5c0,0.6 -0.2,1.1 -0.6,1.5c-0.4,0.4 -0.9,0.6 -1.5,0.6c-0.6,0 -1.1,-0.2 -1.5,-0.6c-0.6,-0.3 -0.8,-0.8 -0.8,-1.4zm4.4,-26.3l0,11.4l5.8,0c0.8,0 1.5,-0.2 2.2,-0.5c0.7,-0.3 1.3,-0.7 1.8,-1.2c0.5,-0.5 0.9,-1.1 1.2,-1.8c0.3,-0.7 0.5,-1.4 0.5,-2.2c0,-0.8 -0.2,-1.5 -0.5,-2.2c-0.3,-0.7 -0.7,-1.3 -1.2,-1.8c-0.5,-0.5 -1.1,-0.9 -1.8,-1.2c-0.7,-0.3 -1.4,-0.5 -2.2,-0.5l-5.8,0z" class="st1"/>
    <path id="svg_21" d="m742.899994,236.1c0.6,0 1.1,0.2 1.5,0.6c0.4,0.4 0.6,0.9 0.6,1.5c0,0.6 -0.2,1.1 -0.6,1.5c-0.4,0.4 -0.9,0.6 -1.5,0.6l-19,0c-0.3,0 -0.6,-0.1 -0.9,-0.2c-0.3,-0.1 -0.5,-0.3 -0.7,-0.5c-0.2,-0.2 -0.4,-0.4 -0.5,-0.7c-0.1,-0.3 -0.2,-0.5 -0.2,-0.9l0,-28.5c0,-0.3 0.1,-0.6 0.2,-0.9c0.1,-0.3 0.3,-0.5 0.5,-0.7c0.2,-0.2 0.4,-0.4 0.7,-0.5c0.3,-0.1 0.5,-0.2 0.9,-0.2l19,0c0.6,0 1.1,0.2 1.5,0.6c0.4,0.4 0.6,0.9 0.6,1.5c0,0.6 -0.2,1.1 -0.6,1.5c-0.4,0.4 -0.9,0.6 -1.5,0.6l-16.8,0l0,9.9l12.1,0c0.6,0 1.1,0.2 1.5,0.6c0.4,0.4 0.6,0.9 0.6,1.5c0,0.6 -0.2,1.1 -0.6,1.5c-0.4,0.4 -0.9,0.6 -1.5,0.6l-12.1,0l0,9.9l16.8,0l0,0.7z" class="st1"/>
    <path id="svg_22" d="m459.099994,287.8l11,-28.2c0.4,-1 1.1,-1.5 2.1,-1.5c1,0 1.7,0.5 2.1,1.5l11,28.3c0.1,0.3 0.2,0.6 0.2,0.9c0,0.6 -0.2,1.1 -0.6,1.5c-0.4,0.4 -0.9,0.6 -1.5,0.6c-0.6,0 -1.1,-0.2 -1.5,-0.6c-0.2,-0.2 -0.4,-0.5 -0.5,-0.7l-3.8,-9.8l-10.7,0l-3.8,9.8c-0.1,0.2 -0.3,0.5 -0.5,0.7c-0.4,0.4 -0.9,0.6 -1.5,0.6c-0.6,0 -1.1,-0.2 -1.5,-0.6c-0.4,-0.4 -0.6,-0.9 -0.6,-1.5c-0.1,-0.4 0,-0.7 0.1,-1zm16.7,-12.3l-3.6,-9.2l-3.6,9.2l7.2,0z" class="st1"/>
    <path id="svg_23" d="m502.999994,262.4l-8.1,0l0,26.3c0,0.6 -0.2,1.1 -0.6,1.5c-0.4,0.4 -0.9,0.6 -1.5,0.6c-0.6,0 -1.1,-0.2 -1.5,-0.6c-0.4,-0.4 -0.6,-0.9 -0.6,-1.5l0,-26.3l-8.1,0c-0.6,0 -1.1,-0.2 -1.5,-0.6c-0.4,-0.4 -0.6,-0.9 -0.6,-1.5c0,-0.6 0.2,-1.1 0.6,-1.5c0.4,-0.4 0.9,-0.6 1.5,-0.6l20.6,0c0.6,0 1.1,0.2 1.5,0.6c0.4,0.4 0.6,0.9 0.6,1.5c0,0.6 -0.2,1.1 -0.6,1.5c-0.6,0.4 -1.1,0.6 -1.7,0.6z" class="st1"/>
    <path id="svg_24" d="m530.499994,262.4l-8.1,0l0,26.3c0,0.6 -0.2,1.1 -0.6,1.5c-0.4,0.4 -0.9,0.6 -1.5,0.6c-0.6,0 -1.1,-0.2 -1.5,-0.6c-0.4,-0.4 -0.6,-0.9 -0.6,-1.5l0,-26.3l-8.3,0c-0.6,0 -1.1,-0.2 -1.5,-0.6c-0.4,-0.4 -0.6,-0.9 -0.6,-1.5c0,-0.6 0.2,-1.1 0.6,-1.5c0.4,-0.4 0.9,-0.6 1.5,-0.6l20.6,0c0.6,0 1.1,0.2 1.5,0.6c0.4,0.4 0.6,0.9 0.6,1.5c0,0.6 -0.2,1.1 -0.6,1.5c-0.4,0.4 -0.9,0.6 -1.5,0.6z" class="st1"/>
    <path id="svg_25" d="m556.399994,286.6c0.6,0 1.1,0.2 1.5,0.6c0.4,0.4 0.6,0.9 0.6,1.5c0,0.6 -0.2,1.1 -0.6,1.5c-0.4,0.4 -0.9,0.6 -1.5,0.6l-19,0c-0.3,0 -0.6,-0.1 -0.9,-0.2c-0.3,-0.1 -0.5,-0.3 -0.7,-0.5c-0.2,-0.2 -0.4,-0.4 -0.5,-0.7c-0.1,-0.3 -0.2,-0.5 -0.2,-0.9l0,-28.5c0,-0.3 0.1,-0.6 0.2,-0.9c0.1,-0.3 0.3,-0.5 0.5,-0.7c0.2,-0.2 0.4,-0.4 0.7,-0.5c0.3,-0.1 0.5,-0.2 0.9,-0.2l19,0c0.6,0 1.1,0.2 1.5,0.6c0.4,0.4 0.6,0.9 0.6,1.5c0,0.6 -0.2,1.1 -0.6,1.5c-0.4,0.4 -0.9,0.6 -1.5,0.6l-16.8,0l0,9.9l12.1,0c0.6,0 1.1,0.2 1.5,0.6c0.4,0.4 0.6,0.9 0.6,1.5c0,0.6 -0.2,1.1 -0.6,1.5c-0.4,0.4 -0.9,0.6 -1.5,0.6l-12.1,0l0,9.9l16.8,0l0,0.7z" class="st1"/>
    <path id="svg_26" d="m561.099994,288.8l0,-28.5c0,-0.3 0.1,-0.6 0.2,-0.9c0.1,-0.3 0.3,-0.5 0.5,-0.7c0.2,-0.2 0.4,-0.4 0.7,-0.5c0.3,-0.1 0.5,-0.2 0.9,-0.2c0.6,0 1.2,0.3 1.7,0.8l18.3,23.6l0,-22.2c0,-0.6 0.2,-1.1 0.6,-1.5c0.4,-0.4 0.9,-0.6 1.5,-0.6c0.6,0 1.1,0.2 1.5,0.6c0.4,0.4 0.6,0.9 0.6,1.5l0,28.5c0,0.3 -0.1,0.6 -0.2,0.9c-0.1,0.3 -0.3,0.5 -0.5,0.7c-0.2,0.2 -0.4,0.4 -0.7,0.5c-0.3,0.1 -0.6,0.2 -0.9,0.2c-0.6,0 -1.2,-0.3 -1.7,-0.8l-18.3,-23.6l0,22.1c0,0.6 -0.2,1.1 -0.6,1.5c-0.4,0.4 -0.9,0.6 -1.5,0.6c-0.6,0 -1.1,-0.2 -1.5,-0.6c-0.4,-0.3 -0.6,-0.8 -0.6,-1.4z" class="st1"/>
    <path id="svg_27" d="m612.999994,262.4l-8.1,0l0,26.3c0,0.6 -0.2,1.1 -0.6,1.5c-0.4,0.4 -0.9,0.6 -1.5,0.6c-0.6,0 -1.1,-0.2 -1.5,-0.6c-0.4,-0.4 -0.6,-0.9 -0.6,-1.5l0,-26.3l-8.1,0c-0.6,0 -1.1,-0.2 -1.5,-0.6c-0.4,-0.4 -0.6,-0.9 -0.6,-1.5c0,-0.6 0.2,-1.1 0.6,-1.5c0.4,-0.4 0.9,-0.6 1.5,-0.6l20.6,0c0.6,0 1.1,0.2 1.5,0.6c0.4,0.4 0.6,0.9 0.6,1.5c0,0.6 -0.2,1.1 -0.6,1.5c-0.6,0.4 -1.1,0.6 -1.7,0.6z" class="st1"/>
    <path id="svg_28" d="m623.499994,288.8c0,0.6 -0.2,1.1 -0.6,1.5c-0.4,0.4 -0.9,0.6 -1.5,0.6c-0.6,0 -1.1,-0.2 -1.5,-0.6c-0.4,-0.4 -0.6,-0.9 -0.6,-1.5l0,-28.5c0,-0.6 0.2,-1.1 0.6,-1.5c0.4,-0.4 0.9,-0.6 1.5,-0.6c0.6,0 1.1,0.2 1.5,0.6c0.4,0.4 0.6,0.9 0.6,1.5l0,28.5z" class="st1"/>
    <path id="svg_29" d="m660.099994,274.5c0,4.5 -1.6,8.4 -4.8,11.6c-3.2,3.2 -7.1,4.8 -11.6,4.8c-4.5,0 -8.4,-1.6 -11.6,-4.8c-3.2,-3.2 -4.8,-7.1 -4.8,-11.6c0,-4.5 1.6,-8.4 4.8,-11.6c3.2,-3.2 7.1,-4.8 11.6,-4.8c4.5,0 8.4,1.6 11.6,4.8c1.6,1.6 2.8,3.4 3.6,5.3c0.8,1.9 1.2,4 1.2,6.3zm-16.4,-12.1c-1.7,0 -3.2,0.3 -4.7,0.9c-1.4,0.6 -2.7,1.5 -3.9,2.7c-1.2,1.2 -2.1,2.5 -2.7,3.9c-0.6,1.4 -0.9,2.9 -0.9,4.6c0,3.3 1.2,6.2 3.5,8.5c2.4,2.4 5.2,3.5 8.5,3.5c3.3,0 6.2,-1.2 8.5,-3.5c2.4,-2.4 3.5,-5.2 3.5,-8.5c0,-3.3 -1.2,-6.2 -3.5,-8.5c-2.1,-2.4 -5,-3.6 -8.3,-3.6z" class="st1"/>
    <path id="svg_30" d="m662.899994,288.8l0,-28.5c0,-0.3 0.1,-0.6 0.2,-0.9c0.1,-0.3 0.3,-0.5 0.5,-0.7c0.2,-0.2 0.4,-0.4 0.7,-0.5c0.3,-0.1 0.5,-0.2 0.9,-0.2c0.6,0 1.2,0.3 1.7,0.8l18.3,23.6l0,-22.2c0,-0.6 0.2,-1.1 0.6,-1.5c0.4,-0.4 0.9,-0.6 1.5,-0.6c0.6,0 1.1,0.2 1.5,0.6c0.4,0.4 0.6,0.9 0.6,1.5l0,28.5c0,0.3 -0.1,0.6 -0.2,0.9c-0.1,0.3 -0.3,0.5 -0.5,0.7c-0.2,0.2 -0.4,0.4 -0.7,0.5c-0.3,0.1 -0.6,0.2 -0.9,0.2c-0.6,0 -1.2,-0.3 -1.7,-0.8l-18.3,-23.6l0,22.1c0,0.6 -0.2,1.1 -0.6,1.5c-0.4,0.4 -0.9,0.6 -1.5,0.6c-0.6,0 -1.1,-0.2 -1.5,-0.6c-0.4,-0.3 -0.6,-0.8 -0.6,-1.4z" class="st1"/>
   </g>
  </g>
  <g id="svg_31">
   <path id="svg_32" d="m442.599994,223.3c0,121.7 -98.6,220.3 -220.3,220.3c-121.7,0 -220.3,-98.6 -220.3,-220.3c0,-121.7 98.6,-220.3 220.3,-220.3c121.7,0 220.3,98.6 220.3,220.3" class="st2"/>
   <path id="svg_33" d="m405.899994,220c-0.1,-19.4 -15.9,-35.2 -35.3,-35.2c-12.3,0 -23.6,6.3 -30.1,16.9c-5.3,8.5 -18,37.6 -18.6,38.8c-0.5,1.2 -1.7,2 -3,2c-1.3,0 -2.5,-0.8 -3,-1.9c-0.5,-1.2 -13.3,-30.3 -18.6,-38.8c-6.6,-10.6 -17.8,-16.9 -30.1,-16.9c-19.4,0 -35.3,15.8 -35.3,35.3c0,19.5 15.8,35.3 35.3,35.3c8,0 15.5,-2.6 21.7,-7.5c0.9,-0.7 1.8,-1.5 2.6,-2.3c0,0 2.6,-2.2 5.3,-6.3l-7.7,-16.1c-1.4,9.7 -8.4,14.3 -8.4,14.3c-3.9,3.1 -8.6,4.7 -13.6,4.7c-9.9,0 -18.4,-6.6 -21.1,-15.7l26.2,0l0,-13.2l-26.1,0c2.9,-8.8 11.2,-15.2 21,-15.2c7.7,0 14.7,4 18.9,10.7c4,6.4 14.1,29 17.7,37.2c2.7,6 8.6,9.8 15.1,9.8c6.5,0 12.5,-3.9 15.1,-9.9c1.1,-2.5 2.8,-6.3 4.7,-10.6l13.1,-26.6c2,-3.3 4.9,-6.1 8.5,-7.9l-0.1,-0.1c3.1,-1.7 6.7,-2.6 10.4,-2.6c12.2,0 22.1,9.9 22.1,22.1c0,12.2 -9.9,22.1 -22.1,22.1c-11.2,0 -20.5,-8.3 -21.9,-19.1l-7.7,16.3c6.3,9.6 17.2,16 29.6,16c8.4,0 16,-2.9 22.1,-7.8l0,7.5l13.2,0l0.1,-35.3l0,0z" class="st1"/>
   <path id="svg_34" d="m234.399994,198.8c0,0 3.9,-6.1 9.8,-10.5c-4.7,-2.2 -9.9,-3.5 -15.2,-3.5c-5.2,0 -10.5,1.2 -15.2,3.4c-4.4,2 -8.5,5 -11.6,8.5l-37.5,39.7c-0.5,0.5 -1,0.9 -1.5,1.3c-3.9,3.1 -8.6,4.7 -13.6,4.7c-11.8,0 -21.9,-10.1 -22.1,-22.1l0,0c-0.1,-5.5 2.4,-11.1 6.6,-15.4c4.2,-4.2 9.8,-6.6 15.3,-6.6l0,0c0,0 0.1,0 0.1,0c12.2,0 22.1,9.8 22.1,21.9c0,1.2 -0.1,2.3 -0.3,3.4l12.2,-12.8c-4.1,-14.8 -17.8,-25.7 -34,-25.7c-10,0 -19.6,4.3 -26.3,11.8l-17.5,18.5l-12.9,13.6l-7.1,7.5c-0.5,0.5 -1,0.9 -1.5,1.3c-3.9,3.1 -8.6,4.7 -13.6,4.7c-12.2,0 -22.1,-9.9 -22.1,-22.1c0,-12.2 9.9,-22.1 22.1,-22.1c12.2,0 22.1,9.9 22.1,22l0,3l11.9,-12.5c-4.2,-14.8 -17.9,-25.7 -34,-25.7c-19.5,0 -35.4,15.8 -35.4,35.3c0,19.5 15.8,35.3 35.3,35.3c8,0 15.5,-2.6 21.7,-7.5c0.2,-0.1 0.3,-0.2 0.5,-0.4l0,7.5l13.2,0l0,-21.1l8.2,-8.7l0,58.3l13.2,0l0,-36.1c6.3,5.1 14,7.9 22.1,7.9c8,0 15.5,-2.6 21.7,-7.5c0.9,-0.7 1.8,-1.5 2.6,-2.3l0.1,-0.1l19.6,-20.7l0,30.1l13.5,0l0,-35c0,-8.5 4.9,-16.3 12.6,-19.9l0,0c2.9,-1.4 6.2,-2.1 9.5,-2.1c1.8,0 3.6,0.2 5.4,0.7" class="st1"/>
   <path id="svg_35" d="m249.399994,170.4l0,12.6c14.4,0 27.1,-7.4 34.7,-18.4l-17.3,0c-4.9,3.6 -10.9,5.8 -17.4,5.8" class="st1"/>
  </g>
 </g>
</svg>